<svg width="52" height="52" viewBox="0 0 52 52" fill="none" xmlns="http://www.w3.org/2000/svg">
<path d="M45.045 24.57L37.8084 10.0967C37.2679 9.01411 36.436 8.10389 35.4063 7.46846C34.3766 6.83304 33.19 6.49763 31.98 6.50001H20.02C18.8101 6.49763 17.6234 6.83304 16.5937 7.46846C15.564 8.10389 14.7322 9.01411 14.1917 10.0967L6.95503 24.57C6.65321 25.1756 6.49738 25.8434 6.50003 26.52V39C6.50003 40.7239 7.18485 42.3772 8.40384 43.5962C9.62283 44.8152 11.2761 45.5 13 45.5H39C40.7239 45.5 42.3772 44.8152 43.5962 43.5962C44.8152 42.3772 45.5 40.7239 45.5 39V26.52C45.5027 25.8434 45.3469 25.1756 45.045 24.57V24.57ZM18.07 12.025C18.2517 11.6644 18.5306 11.3617 18.8751 11.1512C19.2197 10.9406 19.6162 10.8305 20.02 10.8333H31.98C32.3838 10.8305 32.7804 10.9406 33.1249 11.1512C33.4695 11.3617 33.7483 11.6644 33.93 12.025L39.8234 23.8333H34.6667C34.0921 23.8333 33.541 24.0616 33.1346 24.4679C32.7283 24.8743 32.5 25.4254 32.5 26V32.5H19.5V26C19.5 25.4254 19.2718 24.8743 18.8654 24.4679C18.4591 24.0616 17.908 23.8333 17.3334 23.8333H12.1767L18.07 12.025ZM39 41.1667H13C12.4254 41.1667 11.8743 40.9384 11.468 40.5321C11.0616 40.1258 10.8334 39.5746 10.8334 39V28.1667H15.1667V34.6667C15.1667 35.2413 15.395 35.7924 15.8013 36.1987C16.2076 36.6051 16.7587 36.8333 17.3334 36.8333H34.6667C35.2413 36.8333 35.7924 36.6051 36.1988 36.1987C36.6051 35.7924 36.8334 35.2413 36.8334 34.6667V28.1667H41.1667V39C41.1667 39.5746 40.9384 40.1258 40.5321 40.5321C40.1258 40.9384 39.5747 41.1667 39 41.1667Z" fill="white"/>
</svg>
