<svg width="52" height="52" viewBox="0 0 52 52" fill="none" xmlns="http://www.w3.org/2000/svg">
<path d="M39 6.5H13C11.2761 6.5 9.62279 7.18482 8.40381 8.40381C7.18482 9.62279 6.5 11.2761 6.5 13V39C6.5 40.7239 7.18482 42.3772 8.40381 43.5962C9.62279 44.8152 11.2761 45.5 13 45.5H39C40.7239 45.5 42.3772 44.8152 43.5962 43.5962C44.8152 42.3772 45.5 40.7239 45.5 39V13C45.5 11.2761 44.8152 9.62279 43.5962 8.40381C42.3772 7.18482 40.7239 6.5 39 6.5ZM41.1667 39C41.1667 39.5746 40.9384 40.1257 40.5321 40.5321C40.1257 40.9384 39.5746 41.1667 39 41.1667H13C12.4254 41.1667 11.8743 40.9384 11.4679 40.5321C11.0616 40.1257 10.8333 39.5746 10.8333 39V23.8333H41.1667V39ZM10.8333 19.5V13C10.8333 12.4254 11.0616 11.8743 11.4679 11.4679C11.8743 11.0616 12.4254 10.8333 13 10.8333H39C39.5746 10.8333 40.1257 11.0616 40.5321 11.4679C40.9384 11.8743 41.1667 12.4254 41.1667 13V19.5H10.8333Z" fill="white"/>
<path d="M17.3333 17.3984C18.5299 17.3984 19.5 16.4283 19.5 15.2317C19.5 14.0351 18.5299 13.0651 17.3333 13.0651C16.1367 13.0651 15.1666 14.0351 15.1666 15.2317C15.1666 16.4283 16.1367 17.3984 17.3333 17.3984Z" fill="white"/>
<path d="M26 17.3984C27.1967 17.3984 28.1667 16.4283 28.1667 15.2317C28.1667 14.0351 27.1967 13.0651 26 13.0651C24.8034 13.0651 23.8334 14.0351 23.8334 15.2317C23.8334 16.4283 24.8034 17.3984 26 17.3984Z" fill="white"/>
</svg>
