<svg width="32" height="32" viewBox="0 0 32 32" fill="none" xmlns="http://www.w3.org/2000/svg">
<path d="M25.3333 27.6667L22.2533 15.6667C23.3921 14.2498 24.0088 12.4844 24 10.6667C24 8.54496 23.1571 6.51012 21.6568 5.00983C20.1566 3.50954 18.1217 2.66669 16 2.66669C13.8783 2.66669 11.8434 3.50954 10.3431 5.00983C8.84284 6.51012 7.99999 8.54496 7.99999 10.6667C7.99634 12.4984 8.62773 14.2748 9.78666 15.6934L6.66666 27.6667C6.60029 27.9226 6.6115 28.1925 6.69886 28.442C6.78623 28.6915 6.9458 28.9094 7.1573 29.0681C7.3688 29.2267 7.62268 29.3188 7.88668 29.3329C8.15069 29.3469 8.4129 29.2821 8.63999 29.1467L15.7467 24.9734L23.32 29.16C23.5246 29.2835 23.7612 29.3438 24 29.3334C24.207 29.34 24.4127 29.2982 24.6009 29.2115C24.789 29.1248 24.9543 28.9954 25.0837 28.8336C25.2131 28.6719 25.303 28.4822 25.3463 28.2796C25.3897 28.0771 25.3852 27.8672 25.3333 27.6667ZM16 5.33335C17.0548 5.33335 18.086 5.64615 18.963 6.23218C19.8401 6.81822 20.5237 7.65117 20.9273 8.62571C21.331 9.60025 21.4366 10.6726 21.2308 11.7072C21.0251 12.7417 20.5171 13.692 19.7712 14.4379C19.0253 15.1838 18.075 15.6918 17.0405 15.8975C16.0059 16.1033 14.9335 15.9977 13.959 15.594C12.9845 15.1904 12.1515 14.5068 11.5655 13.6297C10.9795 12.7527 10.6667 11.7215 10.6667 10.6667C10.6667 9.2522 11.2286 7.89564 12.2288 6.89545C13.2289 5.89526 14.5855 5.33335 16 5.33335V5.33335ZM16.4133 22.28C16.2106 22.163 15.9807 22.1014 15.7467 22.1014C15.5126 22.1014 15.2827 22.163 15.08 22.28L10.08 25.2134L12 17.6134C13.2008 18.3035 14.5616 18.6668 15.9467 18.6668C17.3317 18.6668 18.6925 18.3035 19.8933 17.6134L21.9333 25.3334L16.4133 22.28Z" fill="url(#paint0_linear_416_141)"/>
<defs>
<linearGradient id="paint0_linear_416_141" x1="7" y1="3" x2="25" y2="29" gradientUnits="userSpaceOnUse">
<stop offset="0.104167" stop-color="#006FFF"/>
<stop offset="1" stop-color="#2C5891"/>
</linearGradient>
</defs>
</svg>
