<svg width="48" height="48" viewBox="0 0 48 48" fill="none" xmlns="http://www.w3.org/2000/svg">
<path d="M42.0002 24.44C42.0002 13.46 33.4802 6 24.0002 6C14.6202 6 6.00024 13.3 6.00024 24.56C4.80024 25.24 4.00024 26.52 4.00024 28V32C4.00024 34.2 5.80024 36 8.00024 36H10.0002V23.8C10.0002 16.06 16.2602 9.8 24.0002 9.8C31.7402 9.8 38.0002 16.06 38.0002 23.8V38H22.0002V42H38.0002C40.2002 42 42.0002 40.2 42.0002 38V35.56C43.1802 34.94 44.0002 33.72 44.0002 32.28V27.68C44.0002 26.28 43.1802 25.06 42.0002 24.44Z" fill="white"/>
<path d="M18.0002 28C19.1048 28 20.0002 27.1046 20.0002 26C20.0002 24.8954 19.1048 24 18.0002 24C16.8957 24 16.0002 24.8954 16.0002 26C16.0002 27.1046 16.8957 28 18.0002 28Z" fill="white"/>
<path d="M30.0002 28C31.1048 28 32.0002 27.1046 32.0002 26C32.0002 24.8954 31.1048 24 30.0002 24C28.8957 24 28.0002 24.8954 28.0002 26C28.0002 27.1046 28.8957 28 30.0002 28Z" fill="white"/>
<path d="M35.9998 22.06C35.0398 16.36 30.0798 12 24.0998 12C18.0398 12 11.5198 17.02 12.0398 24.9C16.9798 22.88 20.6998 18.48 21.7598 13.12C24.3798 18.38 29.7598 22 35.9998 22.06Z" fill="white"/>
</svg>
